<svg xmlns="http://www.w3.org/2000/svg" viewBox="0 0 64 64" id="guidance"><path fill="#f4e9ce" d="M28 30.96V52h30V2H28v23.88"></path><path fill="#94b6e3" d="M18 44v18h-4l-3-14-3 14H4V44"></path><path fill="#94dbe3" d="M9 24h4c3.31 0 6 2.69 6 6v14H3V30c0-3.31 2.69-6 6-6Z"></path><path fill="#94b6e3" d="m19.3 32.07-3.28-2.34c-.96-.69-2.28-.58-3.12.26-1.08 1.08-.9 2.88.37 3.72l6.03 4.02 10.92-8.49A2.02 2.02 0 0 0 27.81 26l-8.51 6.08Z"></path><circle cx="11" cy="15" r="6" fill="#94b6e3"></circle><path d="M11 22c3.86 0 7-3.14 7-7s-3.14-7-7-7-7 3.14-7 7 3.14 7 7 7Zm0-12c2.76 0 5 2.24 5 5s-2.24 5-5 5-5-2.24-5-5 2.24-5 5-5Z"></path><path d="M19 45c.55 0 1-.45 1-1v-5.55l7-5.44v19c0 .55.45 1 1 1h30c.55 0 1-.45 1-1V2c0-.55-.45-1-1-1H28c-.55 0-1 .45-1 1v23.34l-7 5V30c0-3.86-3.14-7-7-7H9c-3.86 0-7 3.14-7 7v14c0 .55.45 1 1 1v16H1v2h62v-2H19V45ZM29 3h28v48H29V31.45l1.83-1.43s.01-.02.02-.02h18.14v-2H31.96c0-.06.03-.11.03-.17a3.04 3.04 0 0 0-.88-2.32c-.58-.58-1.34-.87-2.12-.88V3Zm-9.12 29.88 8.51-6.08c.41-.29.96-.25 1.31.11.21.21.32.49.3.79-.02.3-.16.56-.39.74l-10.35 8.05-5.43-3.62c-.35-.24-.58-.62-.62-1.04s.11-.84.41-1.14a1.41 1.41 0 0 1 1.83-.15l3.28 2.34c.35.25.81.25 1.16 0ZM9.24 61 11 52.77 12.76 61H9.23ZM17 61h-2.19l-2.83-13.21c-.1-.46-.51-.79-.98-.79s-.88.33-.98.79L7.19 61H5V45h12v16Zm1-18H4V30c0-2.76 2.24-5 5-5h4c2.73 0 4.94 2.19 4.99 4.91l-1.39-1a3.403 3.403 0 0 0-4.4.36c-.73.73-1.09 1.73-.98 2.75s.65 1.94 1.51 2.51l5.29 3.52v4.94Z"></path><path d="M33.71 13h.04a.99.99 0 0 0 .77-.42l4.29-6-1.63-1.16-3.54 4.96-.88-1.03-1.52 1.3 1.71 2c.19.22.47.35.76.35ZM38 11h4v2h-4zM44 11h11v2H44zM51 15h4v2h-4zM31 15h18v2H31zM33.71 40h.04a.99.99 0 0 0 .77-.42l4.29-6-1.63-1.16-3.54 4.96-.88-1.03-1.52 1.3 1.71 2c.19.22.47.35.76.35ZM38 38h4v2h-4zM44 38h11v2H44zM51 42h4v2h-4zM31 42h18v2H31zM38 24h4v2h-4zM44 24h11v2H44zM51 28h4v2h-4zM35.41 19.05 34 20.46l-1.41-1.41-1.42 1.41 1.42 1.42-1.42 1.41 1.42 1.42L34 23.29l1.41 1.42 1.42-1.42-1.42-1.41 1.42-1.42-1.42-1.41z"></path></svg>