<svg xmlns="http://www.w3.org/2000/svg" viewBox="0 0 64 64" id="technical-support"><path fill="#f2b0ae" d="M52 33.683V21.319A6.992 6.992 0 0052 8.68V15H46V8.68a6.992 6.992 0 000 12.639V33.683a7 7 0 106 0zM49 43a3 3 0 113-3A3 3 0 0149 43zM21 20l-1-4V5h0a3 3 0 00-3-3H5A3 3 0 002 5v8a3 3 0 003 3H15.4zM34 51a3 3 0 00-3-3H17a3 3 0 00-3 3V62H34z"></path><rect width="4" height="2.25" x="22" y="53.875" fill="#b1404a"></rect><path fill="#b1404a" d="M62,10.875H60.4q-.187-.52-.419-1.018l1.133-1.133a1.126,1.126,0,0,0,0-1.591L56.867,2.891a1.126,1.126,0,0,0-1.591,0L54.143,4.024q-.5-.231-1.018-.419V2A1.125,1.125,0,0,0,52,.875H46A1.125,1.125,0,0,0,44.875,2V3.605q-.52.188-1.018.419L42.724,2.891a1.126,1.126,0,0,0-1.591,0L36.891,7.133a1.126,1.126,0,0,0,0,1.591l1.133,1.133q-.231.5-.419,1.018H36A1.125,1.125,0,0,0,34.875,12v6A1.125,1.125,0,0,0,36,19.125h1.6q.188.521.419,1.018l-1.133,1.133a1.126,1.126,0,0,0,0,1.591l4.242,4.242a1.126,1.126,0,0,0,1.591,0l1.133-1.133c.331.154.672.29,1.018.414v6.618a8.125,8.125,0,1,0,8.25,0V26.39c.346-.124.687-.26,1.018-.414l1.133,1.133a1.126,1.126,0,0,0,1.591,0l4.242-4.242a1.126,1.126,0,0,0,0-1.591l-1.133-1.133q.231-.5.419-1.018H62A1.125,1.125,0,0,0,63.125,18V12A1.125,1.125,0,0,0,62,10.875ZM54.875,40a5.875,5.875,0,1,1-8.392-5.3,1.123,1.123,0,0,0,.642-1.015V21.319a1.124,1.124,0,0,0-.643-1.016A5.9,5.9,0,0,1,43.125,15a5.82,5.82,0,0,1,1.75-4.191V15A1.125,1.125,0,0,0,46,16.125h6A1.125,1.125,0,0,0,53.125,15V10.809A5.82,5.82,0,0,1,54.875,15a5.9,5.9,0,0,1-3.357,5.3,1.124,1.124,0,0,0-.643,1.016V33.683a1.123,1.123,0,0,0,.642,1.015A5.9,5.9,0,0,1,54.875,40Zm6-23.125h-1.3a1.124,1.124,0,0,0-1.082.818,9.862,9.862,0,0,1-.873,2.117,1.125,1.125,0,0,0,.186,1.345l.917.916-2.652,2.652-.917-.916a1.121,1.121,0,0,0-1.343-.187c-.22.123-.454.225-.686.331V21.994a8.167,8.167,0,0,0,4-6.994A8.041,8.041,0,0,0,52.48,7.663a1.124,1.124,0,0,0-1.6,1.017v5.2h-3.75V8.68a1.124,1.124,0,0,0-1.6-1.017A8.041,8.041,0,0,0,40.875,15a8.167,8.167,0,0,0,4,6.994v1.957c-.232-.106-.466-.208-.686-.331a1.124,1.124,0,0,0-1.343.187l-.917.916-2.652-2.652.917-.916a1.125,1.125,0,0,0,.186-1.345,9.862,9.862,0,0,1-.873-2.117,1.124,1.124,0,0,0-1.082-.818h-1.3v-3.75h1.3a1.124,1.124,0,0,0,1.082-.818,9.862,9.862,0,0,1,.873-2.117,1.125,1.125,0,0,0-.186-1.345l-.917-.916,2.652-2.652.917.916a1.124,1.124,0,0,0,1.343.187,9.862,9.862,0,0,1,2.118-.873,1.124,1.124,0,0,0,.818-1.082v-1.3h3.75v1.3a1.124,1.124,0,0,0,.818,1.082,9.862,9.862,0,0,1,2.118.873,1.121,1.121,0,0,0,1.343-.187l.917-.916,2.652,2.652-.917.916a1.125,1.125,0,0,0-.186,1.345,9.862,9.862,0,0,1,.873,2.117,1.124,1.124,0,0,0,1.082.818h1.3Z"></path><path fill="#b1404a" d="M49 35.875A4.125 4.125 0 1053.125 40 4.13 4.13 0 0049 35.875zm0 6A1.875 1.875 0 1150.875 40 1.877 1.877 0 0149 41.875zM5 17.125h9.5A7.075 7.075 0 0013.875 20v4.483A4.113 4.113 0 0016 32.125h.5a8.167 8.167 0 003.373 3.863v2.059l-6.129 1.021A7.007 7.007 0 007.875 46V57A6.131 6.131 0 0014 63.125H34A6.131 6.131 0 0040.125 57V46a7.007 7.007 0 00-5.872-6.932l-6.128-1.021V35.988A8.167 8.167 0 0031.5 32.125H32a4.113 4.113 0 002.125-7.642V20A4.133 4.133 0 0031 16a4.133 4.133 0 00-4-3.123H21.125V5A4.13 4.13 0 0017 .875H5A4.13 4.13 0 00.875 5v8A4.13 4.13 0 005 17.125zM14.125 28a1.871 1.871 0 011.75-1.862V29a8.011 8.011 0 00.048.867A1.873 1.873 0 0114.125 28zm6.62 12.183l1.489.992-1.159 1.158L19.462 40.4zm12.13 20.692H15.125V51A1.877 1.877 0 0117 49.125H31A1.877 1.877 0 0132.875 51zm5-14.875V57a3.866 3.866 0 01-2.75 3.688V51a4.081 4.081 0 00-.45-1.835L36.006 46.5 33.994 45.5l-.967 1.933A4.074 4.074 0 0031 46.875H17a4.074 4.074 0 00-2.027.555L14.006 45.5 11.994 46.5l1.331 2.662A4.081 4.081 0 0012.875 51v9.689A3.866 3.866 0 0110.125 57V46a4.764 4.764 0 013.991-4.713l2.775-.462 3.245 3.895a1.126 1.126 0 00.813.4H21a1.128 1.128 0 00.8-.329l2.2-2.2 2.2 2.2a1.128 1.128 0 00.8.329h.051a1.126 1.126 0 00.813-.4l3.245-3.895 2.774.462A4.764 4.764 0 0137.875 46zm-9.337-5.6l-1.613 1.937-1.159-1.158 1.489-.992zm-2.663-2L24 39.647 22.125 38.4V36.9a7.857 7.857 0 003.75 0zm4-9.4a5.875 5.875 0 01-11.75 0V25.125h4.713A5.5 5.5 0 0027.4 22.707l2.475 1.855zm2.2.867A8.011 8.011 0 0032.125 29V26.138a1.867 1.867 0 01-.048 3.729zM27 15.125A1.877 1.877 0 0128.875 17 1.125 1.125 0 0030 18.125 1.877 1.877 0 0131.875 20v3.3a1.126 1.126 0 00-.2-.2l-4-3a1.125 1.125 0 00-1.742.544 3.259 3.259 0 01-3.095 2.231H17a1.1 1.1 0 00-.875.448V20a4.845 4.845 0 01.372-1.834l3.849 2.75a1.126 1.126 0 001.746-1.189l-.967-3.866v-.736zM3.125 5A1.877 1.877 0 015 3.125H17A1.877 1.877 0 0118.875 5V16a1.192 1.192 0 00.033.273l.26 1.036-3.113-2.225a1.131 1.131 0 00-.655-.209H5A1.877 1.877 0 013.125 13z"></path><rect width="2" height="2.25" x="6" y="7.875" fill="#b1404a"></rect><rect width="2" height="2.25" x="10" y="7.875" fill="#b1404a"></rect><rect width="2" height="2.25" x="14" y="7.875" fill="#b1404a"></rect></svg>